<?xml version="1.0" standalone="no"?>
<!DOCTYPE svg PUBLIC "-//W3C//DTD SVG 20010904//EN"
 "http://www.w3.org/TR/2001/REC-SVG-20010904/DTD/svg10.dtd">
<svg version="1.0" xmlns="http://www.w3.org/2000/svg"
 width="100.000000pt" height="100.000000pt" viewBox="0 0 100.000000 100.000000"
 preserveAspectRatio="xMidYMid meet">
<metadata>
Created by potrace 1.11, written by Peter Selinger 2001-2013
</metadata>
<g transform="translate(0.000000,100.000000) scale(0.100000,-0.100000)"
fill="#000000" stroke="none">
<path d="M408 826 c-92 -25 -168 -90 -216 -186 -23 -47 -27 -67 -27 -140 0
-74 4 -93 29 -145 36 -72 91 -126 165 -163 48 -23 69 -27 141 -27 73 0 93 4
142 28 115 56 188 163 191 279 l2 63 -37 -3 c-27 -3 -42 2 -58 18 -16 16 -28
19 -54 14 -75 -13 -143 52 -133 128 4 31 1 44 -15 60 -15 15 -18 27 -13 54 6
34 6 34 -32 33 -21 0 -59 -6 -85 -13z"/>
<path d="M680 825 c-26 -32 13 -81 48 -59 34 22 22 74 -18 74 -10 0 -23 -7
-30 -15z"/>
<path d="M657 713 c-14 -13 -6 -42 13 -48 25 -8 40 1 40 25 0 23 -37 40 -53
23z"/>
<path d="M794 655 c-4 -9 -2 -21 4 -27 15 -15 44 -1 40 19 -4 23 -36 29 -44 8z"/>
</g>
</svg>
